<svg width="41" height="40" viewBox="0 0 41 40" fill="none" xmlns="http://www.w3.org/2000/svg">
<path fill-rule="evenodd" clip-rule="evenodd" d="M19.4304 0.0042056C19.2254 0.0259925 18.8533 0.106591 18.6345 0.176583C18.055 0.361959 17.4484 0.701783 16.6987 1.26102C14.5058 2.89686 13.1749 5.27443 12.6242 8.54022C12.5474 8.99573 12.4682 9.55405 12.479 9.56474C12.4911 9.57667 12.7149 9.25783 12.8108 9.09207C12.9404 8.86822 13.0731 8.59906 13.3023 8.09529C13.927 6.72198 14.2147 6.21443 15.0463 5.01906C15.6862 4.09936 16.1029 3.57828 16.5685 3.11554C17.2856 2.40303 17.9554 2.00236 18.7562 1.80687C19.1411 1.71292 19.3387 1.69068 19.7853 1.691C21.0766 1.6919 22.173 2.14608 23.0983 3.06335C24.2417 4.19678 25.0212 5.85641 25.7396 8.68665C26.2593 10.7345 26.5691 12.7932 26.7206 15.2057C26.8193 16.7766 26.8449 18.2557 26.8145 20.6101C26.8012 21.6401 26.7977 22.4899 26.8066 22.4986C26.829 22.5203 26.9759 22.3545 27.0992 22.1684C27.2111 21.9996 27.3131 21.7431 27.3658 21.4986C27.4339 21.1821 27.5021 19.7857 27.5211 18.3213C27.5731 14.3074 27.114 10.5041 26.1815 7.22489C26.024 6.67099 25.6269 5.49532 25.4716 5.12299C25.3206 4.76112 24.9789 4.07024 24.7824 3.72942C24.0753 2.5033 23.2655 1.55236 22.3986 0.930242C21.789 0.492766 21.136 0.193828 20.5065 0.0640411C20.3059 0.0226878 20.1655 0.00892336 19.882 0.00286355C19.6809 -0.00142654 19.4777 -0.000829165 19.4304 0.0042056ZM22.6675 0.060714C22.6675 0.0658542 22.7377 0.130149 22.8234 0.203577C25.0376 2.09954 26.6173 4.79308 27.5045 8.18515C28.0332 10.2067 28.3269 12.4072 28.433 15.1417C28.4802 16.3578 28.4595 18.6863 28.3872 20.3023C28.3744 20.588 28.3675 20.8253 28.3719 20.8296C28.3863 20.8439 28.5747 20.3452 28.7068 19.9431C29.0535 18.8878 29.2632 17.7612 29.3823 16.3154C29.4194 15.8654 29.4194 14.037 29.3824 13.5306C29.2705 11.9987 29.0514 10.6339 28.6904 9.22011C27.6632 5.19749 25.767 2.03271 23.474 0.514022C23.2114 0.340063 22.6675 0.0343589 22.6675 0.060714ZM14.3005 11.0461C10.2953 11.1791 6.10771 12.421 3.26641 14.3182C2.58651 14.7723 2.10062 15.1665 1.55537 15.7067C1.13508 16.1231 0.806518 16.5142 0.524318 16.9342C0.341019 17.207 0.0481134 17.7176 0.0651902 17.7345C0.070416 17.7397 0.137074 17.6699 0.21332 17.5795C0.435572 17.3159 1.14369 16.6099 1.46553 16.331C3.97188 14.1592 7.30049 12.8459 11.6979 12.294C14.0725 11.9959 16.7431 11.9182 20.1724 12.0475C20.4741 12.0589 20.7887 12.0729 20.8715 12.0787C21.0207 12.0892 21.0215 12.0889 20.9575 12.0541C20.8583 12.0001 20.3052 11.8024 19.9539 11.6953C18.6836 11.3081 17.3388 11.1014 15.7213 11.0447C15.0776 11.0222 15.0194 11.0222 14.3005 11.0461ZM30.6688 12.4809C30.6688 12.4845 30.7293 12.5314 30.8032 12.5852C31.0487 12.7637 31.447 12.9729 32.1316 13.2831C33.4478 13.8795 33.9502 14.1501 34.82 14.7309C36.6038 15.9222 37.3759 16.5945 37.9384 17.4464C38.6028 18.4526 38.7843 19.6789 38.4552 20.9392C38.0378 22.538 36.7131 23.806 34.5168 24.709C33.0529 25.3109 30.6446 25.9235 28.4702 26.2472C27.0357 26.4608 25.7603 26.5763 23.8074 26.6697C23.1982 26.6988 17.8427 26.7057 17.6916 26.6776C17.6262 26.6654 17.6156 26.6685 17.6264 26.6964C17.6505 26.7588 17.9242 26.9645 18.1075 27.0581C18.4436 27.2296 18.653 27.2727 19.3551 27.3152C21.2696 27.4312 23.4777 27.431 25.3453 27.3147C28.4261 27.1228 31.2301 26.6371 33.7295 25.8624C34.8515 25.5146 35.5938 25.2105 36.3946 24.7707C38.1174 23.8245 39.2446 22.762 39.8752 21.4901C40.3362 20.5601 40.4366 19.7205 40.1975 18.7907C39.9309 17.7546 38.8875 16.2561 37.7326 15.2507C36.057 13.7919 34.0069 12.9442 31.1743 12.5391C30.7251 12.4749 30.6688 12.4684 30.6688 12.4809ZM16.4514 12.9367C12.8971 13.0646 9.9564 13.4908 7.20283 14.2772C6.04391 14.6081 5.23907 14.9004 4.50318 15.2576C2.91893 16.0268 1.71273 16.9539 0.961769 17.9798C-0.118948 19.4563 -0.288202 20.9126 0.450564 22.3786C0.636444 22.7474 0.912277 23.1756 1.26668 23.6454C2.8712 25.7725 5.1833 27.0795 8.36268 27.6568C8.83345 27.7423 9.55317 27.8448 9.60644 27.834C9.63216 27.8287 9.59172 27.79 9.4764 27.7097C9.20696 27.5221 8.87664 27.3494 8.22913 27.0576C7.41288 26.6897 6.63997 26.3041 6.23198 26.0611C5.90363 25.8656 5.07274 25.3113 4.53544 24.9293C2.63538 23.5786 1.84239 22.4508 1.71525 20.9183C1.66492 20.3115 1.77025 19.57 1.98972 18.9857C2.38022 17.9461 3.1374 17.0926 4.33108 16.3465C4.88241 16.002 5.89774 15.5455 6.7186 15.2731C7.98828 14.8518 9.70741 14.4302 11.1621 14.1833C12.873 13.893 14.5439 13.7326 16.774 13.6444C17.5191 13.6149 20.1482 13.6082 21.6888 13.6318L22.7213 13.6476L22.5758 13.5111C22.3448 13.2943 21.985 13.1283 21.6026 13.0618C21.4124 13.0288 20.5424 12.9763 19.6455 12.9438C19.139 12.9255 16.903 12.9205 16.4514 12.9367ZM13.5445 17.5904C13.317 17.8249 13.1686 18.1261 13.0868 18.5195C12.9667 19.0968 12.8919 22.4761 12.9638 24.0722C13.1374 27.9245 13.694 31.1737 14.667 34.0162C15.092 35.2577 15.6252 36.3044 16.3355 37.2919C17.4411 38.8288 18.7885 39.7686 20.1766 39.9716C20.5217 40.022 21.0546 40.0037 21.4107 39.9293C22.0385 39.7981 22.6154 39.5282 23.388 39.0041C24.3405 38.3577 25.2322 37.4826 25.8779 36.5603C26.9042 35.0943 27.5837 33.2312 27.9032 31.0074C27.9336 30.7961 27.9635 30.5801 27.9697 30.5273L27.981 30.4312L27.9146 30.5059C27.7449 30.697 27.4566 31.2314 27.1013 32.0137C26.4684 33.4075 26.1008 34.0294 25.0363 35.5075C24.5026 36.2488 23.8755 36.9472 23.4095 37.3196C22.3835 38.1394 21.2767 38.4437 19.9803 38.2624C18.7367 38.0882 17.657 37.4235 16.803 36.3056C15.9445 35.182 15.3151 33.6754 14.7192 31.3168C14.068 28.7401 13.7609 26.3326 13.6531 22.9625C13.6275 22.1626 13.6402 17.5954 13.6682 17.523C13.692 17.4615 13.6444 17.4875 13.5445 17.5904ZM12.0213 19.2971C11.494 20.6341 11.2087 21.9678 11.0704 23.7414C11.0344 24.2031 11.0342 25.9145 11.0701 26.3982C11.1378 27.3107 11.2206 28.027 11.345 28.7775C11.8396 31.7607 12.8816 34.5657 14.2733 36.6599C15.0826 37.8777 15.996 38.8299 16.9783 39.4792C17.2707 39.6725 17.7586 39.9499 17.776 39.9323C17.7807 39.9278 17.6812 39.834 17.5549 39.7237C15.338 37.7925 13.7942 35.1108 12.9152 31.6648C12.117 28.5357 11.8534 24.8475 12.0654 19.7764C12.0788 19.456 12.0852 19.1893 12.0798 19.1838C12.0743 19.1784 12.048 19.2294 12.0213 19.2971ZM40.0575 22.7963C39.8108 23.0825 39.2254 23.6674 38.9061 23.9467C36.1786 26.3331 32.4613 27.696 27.4209 28.1577C26.902 28.2052 26.2412 28.2506 25.4744 28.2913C24.7899 28.3276 21.4274 28.3278 20.5703 28.2915C20.2273 28.277 19.8014 28.26 19.6239 28.2537L19.3013 28.2422L19.4841 28.319C20.227 28.6312 21.5039 28.9571 22.5707 29.1068C23.5281 29.2412 24.1106 29.278 25.2701 29.2777C26.2199 29.2773 26.5483 29.2636 27.3349 29.1918C30.9709 28.8596 34.6094 27.6588 37.1107 25.9656C37.7792 25.513 38.2256 25.1473 38.768 24.6078C39.2195 24.1587 39.515 23.8066 39.8032 23.3743C39.9866 23.0995 40.2753 22.5954 40.2592 22.5795C40.2547 22.5752 40.164 22.6728 40.0575 22.7963Z" fill="#FFD300"/>
</svg>
