<svg width="38" height="39" viewBox="0 0 38 39" fill="none" xmlns="http://www.w3.org/2000/svg">
<path d="M19 10C16.4219 10 16.0978 10.0119 15.0848 10.057C14.0719 10.1045 13.3819 10.2636 12.7775 10.4987C12.1435 10.7372 11.5692 11.1113 11.0948 11.5948C10.6116 12.0695 10.2376 12.6437 9.99875 13.2775C9.76362 13.8807 9.60331 14.5719 9.557 15.5812C9.51188 16.5966 9.5 16.9196 9.5 19.5012C9.5 22.0804 9.51188 22.4034 9.557 23.4164C9.6045 24.4281 9.76362 25.1181 9.99875 25.7225C10.2422 26.3471 10.5664 26.8767 11.0948 27.4052C11.6221 27.9336 12.1517 28.259 12.7763 28.5012C13.3819 28.7364 14.0707 28.8967 15.0824 28.943C16.0966 28.9881 16.4196 29 19 29C21.5804 29 21.9023 28.9881 22.9164 28.943C23.9269 28.8955 24.6193 28.7364 25.2237 28.5012C25.8573 28.2627 26.4312 27.8886 26.9052 27.4052C27.4336 26.8767 27.7578 26.3471 28.0012 25.7225C28.2352 25.1181 28.3955 24.4281 28.443 23.4164C28.4881 22.4034 28.5 22.0804 28.5 19.5C28.5 16.9196 28.4881 16.5966 28.443 15.5824C28.3955 14.5719 28.2352 13.8807 28.0012 13.2775C27.7625 12.6436 27.3884 12.0694 26.9052 11.5948C26.4309 11.1111 25.8566 10.737 25.2225 10.4987C24.6169 10.2636 23.9257 10.1033 22.9152 10.057C21.9011 10.0119 21.5793 10 18.9976 10H19.0012H19ZM18.1486 11.7124H19.0012C21.5377 11.7124 21.8381 11.7207 22.8392 11.767C23.7654 11.8086 24.2689 11.9641 24.6038 12.0936C25.0468 12.2657 25.3638 12.4724 25.6963 12.8049C26.0288 13.1374 26.2343 13.4533 26.4064 13.8974C26.5371 14.2311 26.6914 14.7346 26.733 15.6608C26.7793 16.6619 26.7888 16.9623 26.7888 19.4976C26.7888 22.0329 26.7793 22.3346 26.733 23.3356C26.6914 24.2619 26.5359 24.7642 26.4064 25.0991C26.2541 25.5116 26.011 25.8845 25.6951 26.1904C25.3626 26.5229 25.0468 26.7283 24.6026 26.9005C24.2701 27.0311 23.7666 27.1855 22.8392 27.2283C21.8381 27.2734 21.5377 27.2841 19.0012 27.2841C16.4647 27.2841 16.1631 27.2734 15.162 27.2283C14.2358 27.1855 13.7334 27.0311 13.3986 26.9005C12.9859 26.7484 12.6126 26.5057 12.3061 26.1904C11.9899 25.884 11.7464 25.5107 11.5936 25.0979C11.4641 24.7642 11.3086 24.2607 11.267 23.3344C11.2219 22.3334 11.2124 22.0329 11.2124 19.4952C11.2124 16.9587 11.2219 16.6595 11.267 15.6584C11.3098 14.7322 11.4641 14.2287 11.5948 13.8938C11.7669 13.4509 11.9736 13.1338 12.3061 12.8013C12.6386 12.4688 12.9544 12.2634 13.3986 12.0912C13.7334 11.9606 14.2358 11.8062 15.162 11.7634C16.0384 11.7231 16.378 11.7112 18.1486 11.71V11.7124ZM24.0718 13.2894C23.9221 13.2894 23.7739 13.3189 23.6356 13.3762C23.4972 13.4334 23.3716 13.5174 23.2657 13.6233C23.1599 13.7291 23.0759 13.8548 23.0186 13.9931C22.9613 14.1314 22.9318 14.2797 22.9318 14.4294C22.9318 14.5791 22.9613 14.7273 23.0186 14.8656C23.0759 15.0039 23.1599 15.1296 23.2657 15.2355C23.3716 15.3413 23.4972 15.4253 23.6356 15.4826C23.7739 15.5399 23.9221 15.5694 24.0718 15.5694C24.3742 15.5694 24.6641 15.4493 24.8779 15.2355C25.0917 15.0217 25.2118 14.7317 25.2118 14.4294C25.2118 14.127 25.0917 13.8371 24.8779 13.6233C24.6641 13.4095 24.3742 13.2894 24.0718 13.2894ZM19.0012 14.6217C18.3541 14.6117 17.7114 14.7304 17.1107 14.971C16.5099 15.2117 15.963 15.5695 15.5018 16.0235C15.0406 16.4775 14.6744 17.0188 14.4244 17.6157C14.1744 18.2127 14.0456 18.8534 14.0456 19.5006C14.0456 20.1478 14.1744 20.7885 14.4244 21.3854C14.6744 21.9824 15.0406 22.5236 15.5018 22.9777C15.963 23.4317 16.5099 23.7895 17.1107 24.0301C17.7114 24.2708 18.3541 24.3895 19.0012 24.3794C20.282 24.3595 21.5035 23.8366 22.4022 22.9239C23.3008 22.0111 23.8045 20.7815 23.8045 19.5006C23.8045 18.2197 23.3008 16.9901 22.4022 16.0773C21.5035 15.1645 20.282 14.6417 19.0012 14.6217ZM19.0012 16.3329C19.8411 16.3329 20.6467 16.6666 21.2406 17.2605C21.8346 17.8545 22.1683 18.66 22.1683 19.5C22.1683 20.34 21.8346 21.1455 21.2406 21.7395C20.6467 22.3334 19.8411 22.6671 19.0012 22.6671C18.1612 22.6671 17.3557 22.3334 16.7617 21.7395C16.1678 21.1455 15.8341 20.34 15.8341 19.5C15.8341 18.66 16.1678 17.8545 16.7617 17.2605C17.3557 16.6666 18.1612 16.3329 19.0012 16.3329Z" fill="#FFD200"/>
</svg>
