<svg width="101" height="48" viewBox="0 0 101 48" fill="none" xmlns="http://www.w3.org/2000/svg">
<path fill-rule="evenodd" clip-rule="evenodd" d="M19.4304 4.00421C19.2254 4.02599 18.8533 4.10659 18.6345 4.17658C18.055 4.36196 17.4484 4.70178 16.6987 5.26102C14.5058 6.89686 13.1749 9.27443 12.6242 12.5402C12.5474 12.9957 12.4682 13.5541 12.479 13.5647C12.4911 13.5767 12.7149 13.2578 12.8108 13.0921C12.9404 12.8682 13.0731 12.5991 13.3023 12.0953C13.927 10.722 14.2147 10.2144 15.0463 9.01906C15.6862 8.09936 16.1029 7.57828 16.5685 7.11554C17.2856 6.40303 17.9554 6.00236 18.7562 5.80687C19.1411 5.71292 19.3387 5.69068 19.7853 5.691C21.0766 5.6919 22.173 6.14608 23.0983 7.06335C24.2417 8.19678 25.0212 9.85641 25.7396 12.6866C26.2593 14.7345 26.5691 16.7932 26.7206 19.2057C26.8193 20.7766 26.8449 22.2557 26.8145 24.6101C26.8012 25.6401 26.7977 26.4899 26.8066 26.4986C26.829 26.5203 26.9759 26.3545 27.0992 26.1684C27.2111 25.9996 27.3131 25.7431 27.3658 25.4986C27.4339 25.1821 27.5021 23.7857 27.5211 22.3213C27.5731 18.3074 27.114 14.5041 26.1815 11.2249C26.024 10.671 25.6269 9.49532 25.4716 9.12299C25.3206 8.76112 24.9789 8.07024 24.7824 7.72942C24.0753 6.5033 23.2655 5.55236 22.3986 4.93024C21.789 4.49277 21.136 4.19383 20.5065 4.06404C20.3059 4.02269 20.1655 4.00892 19.882 4.00286C19.6809 3.99857 19.4777 3.99917 19.4304 4.00421ZM22.6675 4.06071C22.6675 4.06585 22.7377 4.13015 22.8234 4.20358C25.0376 6.09954 26.6173 8.79308 27.5045 12.1852C28.0332 14.2067 28.3269 16.4072 28.433 19.1417C28.4802 20.3578 28.4595 22.6863 28.3872 24.3023C28.3744 24.588 28.3675 24.8253 28.3719 24.8296C28.3863 24.8439 28.5747 24.3452 28.7068 23.9431C29.0535 22.8878 29.2632 21.7612 29.3823 20.3154C29.4194 19.8654 29.4194 18.037 29.3824 17.5306C29.2705 15.9987 29.0514 14.6339 28.6904 13.2201C27.6632 9.19749 25.767 6.03271 23.474 4.51402C23.2114 4.34006 22.6675 4.03436 22.6675 4.06071ZM14.3005 15.0461C10.2953 15.1791 6.10771 16.421 3.26641 18.3182C2.58651 18.7723 2.10062 19.1665 1.55537 19.7067C1.13508 20.1231 0.806518 20.5142 0.524318 20.9342C0.341019 21.207 0.0481134 21.7176 0.0651902 21.7345C0.070416 21.7397 0.137074 21.6699 0.21332 21.5795C0.435572 21.3159 1.14369 20.6099 1.46553 20.331C3.97188 18.1592 7.30049 16.8459 11.6979 16.294C14.0725 15.9959 16.7431 15.9182 20.1724 16.0475C20.4741 16.0589 20.7887 16.0729 20.8715 16.0787C21.0207 16.0892 21.0215 16.0889 20.9575 16.0541C20.8583 16.0001 20.3052 15.8024 19.9539 15.6953C18.6836 15.3081 17.3388 15.1014 15.7213 15.0447C15.0776 15.0222 15.0194 15.0222 14.3005 15.0461ZM30.6688 16.4809C30.6688 16.4845 30.7293 16.5314 30.8032 16.5852C31.0487 16.7637 31.447 16.9729 32.1316 17.2831C33.4478 17.8795 33.9502 18.1501 34.82 18.7309C36.6038 19.9222 37.3759 20.5945 37.9384 21.4464C38.6028 22.4526 38.7843 23.6789 38.4552 24.9392C38.0378 26.538 36.7131 27.806 34.5168 28.709C33.0529 29.3109 30.6446 29.9235 28.4702 30.2472C27.0357 30.4608 25.7603 30.5763 23.8074 30.6697C23.1982 30.6988 17.8427 30.7057 17.6916 30.6776C17.6262 30.6654 17.6156 30.6685 17.6264 30.6964C17.6505 30.7588 17.9242 30.9645 18.1075 31.0581C18.4436 31.2296 18.653 31.2727 19.3551 31.3152C21.2696 31.4312 23.4777 31.431 25.3453 31.3147C28.4261 31.1228 31.2301 30.6371 33.7295 29.8624C34.8515 29.5146 35.5938 29.2105 36.3946 28.7707C38.1174 27.8245 39.2446 26.762 39.8752 25.4901C40.3362 24.5601 40.4366 23.7205 40.1975 22.7907C39.9309 21.7546 38.8875 20.2561 37.7326 19.2507C36.057 17.7919 34.0069 16.9442 31.1743 16.5391C30.7251 16.4749 30.6688 16.4684 30.6688 16.4809ZM16.4514 16.9367C12.8971 17.0646 9.9564 17.4908 7.20283 18.2772C6.04391 18.6081 5.23907 18.9004 4.50318 19.2576C2.91893 20.0268 1.71273 20.9539 0.961769 21.9798C-0.118948 23.4563 -0.288202 24.9126 0.450564 26.3786C0.636444 26.7474 0.912277 27.1756 1.26668 27.6454C2.8712 29.7725 5.1833 31.0795 8.36268 31.6568C8.83345 31.7423 9.55317 31.8448 9.60644 31.834C9.63216 31.8287 9.59172 31.79 9.4764 31.7097C9.20696 31.5221 8.87664 31.3494 8.22913 31.0576C7.41288 30.6897 6.63997 30.3041 6.23198 30.0611C5.90363 29.8656 5.07274 29.3113 4.53544 28.9293C2.63538 27.5786 1.84239 26.4508 1.71525 24.9183C1.66492 24.3115 1.77025 23.57 1.98972 22.9857C2.38022 21.9461 3.1374 21.0926 4.33108 20.3465C4.88241 20.002 5.89774 19.5455 6.7186 19.2731C7.98828 18.8518 9.70741 18.4302 11.1621 18.1833C12.873 17.893 14.5439 17.7326 16.774 17.6444C17.5191 17.6149 20.1482 17.6082 21.6888 17.6318L22.7213 17.6476L22.5758 17.5111C22.3448 17.2943 21.985 17.1283 21.6026 17.0618C21.4124 17.0288 20.5424 16.9763 19.6455 16.9438C19.139 16.9255 16.903 16.9205 16.4514 16.9367ZM13.5445 21.5904C13.317 21.8249 13.1686 22.1261 13.0868 22.5195C12.9667 23.0968 12.8919 26.4761 12.9638 28.0722C13.1374 31.9245 13.694 35.1737 14.667 38.0162C15.092 39.2577 15.6252 40.3044 16.3355 41.2919C17.4411 42.8288 18.7885 43.7686 20.1766 43.9716C20.5217 44.022 21.0546 44.0037 21.4107 43.9293C22.0385 43.7981 22.6154 43.5282 23.388 43.0041C24.3405 42.3577 25.2322 41.4826 25.8779 40.5603C26.9042 39.0943 27.5837 37.2312 27.9032 35.0074C27.9336 34.7961 27.9635 34.5801 27.9697 34.5273L27.981 34.4312L27.9146 34.5059C27.7449 34.697 27.4566 35.2314 27.1013 36.0137C26.4684 37.4075 26.1008 38.0294 25.0363 39.5075C24.5026 40.2488 23.8755 40.9472 23.4095 41.3196C22.3835 42.1394 21.2767 42.4437 19.9803 42.2624C18.7367 42.0882 17.657 41.4235 16.803 40.3056C15.9445 39.182 15.3151 37.6754 14.7192 35.3168C14.068 32.7401 13.7609 30.3326 13.6531 26.9625C13.6275 26.1626 13.6402 21.5954 13.6682 21.523C13.692 21.4615 13.6444 21.4875 13.5445 21.5904ZM12.0213 23.2971C11.494 24.6341 11.2087 25.9678 11.0704 27.7414C11.0344 28.2031 11.0342 29.9145 11.0701 30.3982C11.1378 31.3107 11.2206 32.027 11.345 32.7775C11.8396 35.7607 12.8816 38.5657 14.2733 40.6599C15.0826 41.8777 15.996 42.8299 16.9783 43.4792C17.2707 43.6725 17.7586 43.9499 17.776 43.9323C17.7807 43.9278 17.6812 43.834 17.5549 43.7237C15.338 41.7925 13.7942 39.1108 12.9152 35.6648C12.117 32.5357 11.8534 28.8475 12.0654 23.7764C12.0788 23.456 12.0852 23.1893 12.0798 23.1838C12.0743 23.1784 12.048 23.2294 12.0213 23.2971ZM40.0575 26.7963C39.8108 27.0825 39.2254 27.6674 38.9061 27.9467C36.1786 30.3331 32.4613 31.696 27.4209 32.1577C26.902 32.2052 26.2412 32.2506 25.4744 32.2913C24.7899 32.3276 21.4274 32.3278 20.5703 32.2915C20.2273 32.277 19.8014 32.26 19.6239 32.2537L19.3013 32.2422L19.4841 32.319C20.227 32.6312 21.5039 32.9571 22.5707 33.1068C23.5281 33.2412 24.1106 33.278 25.2701 33.2777C26.2199 33.2773 26.5483 33.2636 27.3349 33.1918C30.9709 32.8596 34.6094 31.6588 37.1107 29.9656C37.7792 29.513 38.2256 29.1473 38.768 28.6078C39.2195 28.1587 39.515 27.8066 39.8032 27.3743C39.9866 27.0995 40.2753 26.5954 40.2592 26.5795C40.2547 26.5752 40.164 26.6728 40.0575 26.7963Z" fill="#FFD300"/>
<path d="M50.064 19.144C49.3173 19.144 48.6933 18.984 48.192 18.664C47.7013 18.344 47.328 17.9013 47.072 17.336C46.816 16.7707 46.6667 16.1147 46.624 15.368L48.224 14.936C48.256 15.3947 48.3253 15.8373 48.432 16.264C48.5493 16.6907 48.736 17.0427 48.992 17.32C49.248 17.5867 49.6053 17.72 50.064 17.72C50.5333 17.72 50.8853 17.592 51.12 17.336C51.3653 17.0693 51.488 16.6907 51.488 16.2C51.488 15.6133 51.3547 15.144 51.088 14.792C50.8213 14.4293 50.4853 14.0667 50.08 13.704L47.904 11.784C47.4773 11.4107 47.1627 11.0053 46.96 10.568C46.7573 10.12 46.656 9.57067 46.656 8.92C46.656 7.97067 46.928 7.23467 47.472 6.712C48.016 6.18933 48.7573 5.928 49.696 5.928C50.208 5.928 50.656 5.99733 51.04 6.136C51.4347 6.264 51.76 6.46667 52.016 6.744C52.2827 7.02133 52.4907 7.37333 52.64 7.8C52.8 8.216 52.9067 8.70667 52.96 9.272L51.424 9.688C51.392 9.26133 51.328 8.872 51.232 8.52C51.136 8.15733 50.9653 7.86933 50.72 7.656C50.4853 7.432 50.144 7.32 49.696 7.32C49.248 7.32 48.896 7.44267 48.64 7.688C48.3947 7.92267 48.272 8.27467 48.272 8.744C48.272 9.13867 48.336 9.464 48.464 9.72C48.6027 9.976 48.8213 10.2373 49.12 10.504L51.312 12.424C51.8027 12.8507 52.2347 13.3627 52.608 13.96C52.9813 14.5467 53.168 15.2453 53.168 16.056C53.168 16.696 53.0347 17.2507 52.768 17.72C52.5013 18.1787 52.1333 18.5307 51.664 18.776C51.2053 19.0213 50.672 19.144 50.064 19.144ZM56.3145 19V7.384H54.1225V6.04H60.2505V7.384H58.1225V19H56.3145ZM65.1639 19.144C64.2252 19.144 63.5052 18.9573 63.0039 18.584C62.5025 18.2107 62.1612 17.688 61.9799 17.016C61.7985 16.3333 61.7079 15.5387 61.7079 14.632V6.04H63.4359V14.712C63.4359 15.2667 63.4732 15.7733 63.5479 16.232C63.6225 16.6907 63.7825 17.0533 64.0279 17.32C64.2839 17.5867 64.6625 17.72 65.1639 17.72C65.6759 17.72 66.0545 17.5867 66.2999 17.32C66.5452 17.0533 66.7052 16.6907 66.7799 16.232C66.8545 15.7733 66.8919 15.2667 66.8919 14.712V6.04H68.6039V14.632C68.6039 15.5387 68.5132 16.3333 68.3319 17.016C68.1505 17.688 67.8092 18.2107 67.3079 18.584C66.8172 18.9573 66.1025 19.144 65.1639 19.144ZM70.8274 19V6.04H73.6434C74.6034 6.04 75.3607 6.18933 75.9154 6.488C76.4807 6.776 76.8807 7.21333 77.1154 7.8C77.3607 8.38667 77.4834 9.11733 77.4834 9.992V14.76C77.4834 15.6773 77.3607 16.4507 77.1154 17.08C76.8807 17.7093 76.4914 18.1893 75.9474 18.52C75.414 18.84 74.694 19 73.7874 19H70.8274ZM72.6354 17.704H73.6594C74.3207 17.704 74.79 17.576 75.0674 17.32C75.3447 17.064 75.51 16.6907 75.5634 16.2C75.6274 15.7093 75.6594 15.1173 75.6594 14.424V10.216C75.6594 9.544 75.6167 9 75.5314 8.584C75.446 8.168 75.2594 7.864 74.9714 7.672C74.6834 7.48 74.23 7.384 73.6114 7.384H72.6354V17.704ZM79.5849 19V6.04H84.6089V7.384H81.3929V11.672H84.0009V12.952H81.3929V17.704H84.6409V19H79.5849ZM86.4205 19V6.04H87.6525L91.3325 14.648V6.04H92.8365V19H91.6845L87.9565 10.152V19H86.4205ZM96.6176 19V7.384H94.4256V6.04H100.554V7.384H98.4256V19H96.6176ZM50.256 43.144C49.3387 43.144 48.624 42.952 48.112 42.568C47.6107 42.184 47.2587 41.6667 47.056 41.016C46.864 40.3653 46.768 39.64 46.768 38.84V34.264C46.768 33.3893 46.864 32.6267 47.056 31.976C47.2587 31.3253 47.6107 30.824 48.112 30.472C48.624 30.1093 49.3387 29.928 50.256 29.928C51.0667 29.928 51.7067 30.0773 52.176 30.376C52.656 30.6747 52.9973 31.1013 53.2 31.656C53.4133 32.2107 53.52 32.8773 53.52 33.656V34.68H51.808V33.768C51.808 33.288 51.7813 32.8667 51.728 32.504C51.6853 32.1307 51.5573 31.8427 51.344 31.64C51.1307 31.4373 50.7733 31.336 50.272 31.336C49.76 31.336 49.3867 31.448 49.152 31.672C48.9173 31.8853 48.7627 32.1947 48.688 32.6C48.624 32.9947 48.592 33.4587 48.592 33.992V39.128C48.592 39.7787 48.6453 40.296 48.752 40.68C48.8587 41.0533 49.0347 41.32 49.28 41.48C49.5253 41.64 49.856 41.72 50.272 41.72C50.7627 41.72 51.1147 41.6133 51.328 41.4C51.5413 41.176 51.6747 40.872 51.728 40.488C51.7813 40.104 51.808 39.656 51.808 39.144V38.184H53.52V39.144C53.52 39.9333 53.424 40.632 53.232 41.24C53.04 41.8373 52.7093 42.3067 52.24 42.648C51.7707 42.9787 51.1093 43.144 50.256 43.144ZM58.8744 43.144C57.9997 43.144 57.301 42.9733 56.7784 42.632C56.2557 42.2907 55.8824 41.8053 55.6584 41.176C55.4344 40.536 55.3224 39.7893 55.3224 38.936V34.024C55.3224 33.1707 55.4344 32.44 55.6584 31.832C55.893 31.2133 56.2664 30.744 56.7784 30.424C57.301 30.0933 57.9997 29.928 58.8744 29.928C59.749 29.928 60.4424 30.0933 60.9544 30.424C61.4664 30.7547 61.8344 31.224 62.0584 31.832C62.293 32.44 62.4104 33.1707 62.4104 34.024V38.952C62.4104 39.7947 62.293 40.5307 62.0584 41.16C61.8344 41.7893 61.4664 42.28 60.9544 42.632C60.4424 42.9733 59.749 43.144 58.8744 43.144ZM58.8744 41.72C59.3544 41.72 59.717 41.624 59.9624 41.432C60.2077 41.2293 60.373 40.952 60.4584 40.6C60.5437 40.2373 60.5864 39.816 60.5864 39.336V33.656C60.5864 33.176 60.5437 32.7653 60.4584 32.424C60.373 32.072 60.2077 31.8053 59.9624 31.624C59.717 31.432 59.3544 31.336 58.8744 31.336C58.3944 31.336 58.0264 31.432 57.7704 31.624C57.525 31.8053 57.3597 32.072 57.2744 32.424C57.189 32.7653 57.1464 33.176 57.1464 33.656V39.336C57.1464 39.816 57.189 40.2373 57.2744 40.6C57.3597 40.952 57.525 41.2293 57.7704 41.432C58.0264 41.624 58.3944 41.72 58.8744 41.72ZM67.8514 43.144C66.9127 43.144 66.1927 42.9573 65.6914 42.584C65.19 42.2107 64.8487 41.688 64.6674 41.016C64.486 40.3333 64.3954 39.5387 64.3954 38.632V30.04H66.1234V38.712C66.1234 39.2667 66.1607 39.7733 66.2354 40.232C66.31 40.6907 66.47 41.0533 66.7154 41.32C66.9714 41.5867 67.35 41.72 67.8514 41.72C68.3634 41.72 68.742 41.5867 68.9874 41.32C69.2327 41.0533 69.3927 40.6907 69.4674 40.232C69.542 39.7733 69.5794 39.2667 69.5794 38.712V30.04H71.2914V38.632C71.2914 39.5387 71.2007 40.3333 71.0194 41.016C70.838 41.688 70.4967 42.2107 69.9954 42.584C69.5047 42.9573 68.79 43.144 67.8514 43.144ZM73.5149 43V30.04H74.7469L78.4269 38.648V30.04H79.9309V43H78.7789L75.0509 34.152V43H73.5149ZM85.536 43.144C84.6187 43.144 83.904 42.952 83.392 42.568C82.8907 42.184 82.5387 41.6667 82.336 41.016C82.144 40.3653 82.048 39.64 82.048 38.84V34.264C82.048 33.3893 82.144 32.6267 82.336 31.976C82.5387 31.3253 82.8907 30.824 83.392 30.472C83.904 30.1093 84.6187 29.928 85.536 29.928C86.3467 29.928 86.9867 30.0773 87.456 30.376C87.936 30.6747 88.2773 31.1013 88.48 31.656C88.6933 32.2107 88.8 32.8773 88.8 33.656V34.68H87.088V33.768C87.088 33.288 87.0613 32.8667 87.008 32.504C86.9653 32.1307 86.8373 31.8427 86.624 31.64C86.4107 31.4373 86.0533 31.336 85.552 31.336C85.04 31.336 84.6667 31.448 84.432 31.672C84.1973 31.8853 84.0427 32.1947 83.968 32.6C83.904 32.9947 83.872 33.4587 83.872 33.992V39.128C83.872 39.7787 83.9253 40.296 84.032 40.68C84.1387 41.0533 84.3147 41.32 84.56 41.48C84.8053 41.64 85.136 41.72 85.552 41.72C86.0427 41.72 86.3947 41.6133 86.608 41.4C86.8213 41.176 86.9547 40.872 87.008 40.488C87.0613 40.104 87.088 39.656 87.088 39.144V38.184H88.8V39.144C88.8 39.9333 88.704 40.632 88.512 41.24C88.32 41.8373 87.9893 42.3067 87.52 42.648C87.0507 42.9787 86.3893 43.144 85.536 43.144ZM90.9384 43V30.04H92.7144V43H90.9384ZM95.1311 43V30.04H96.9391V41.704H100.251V43H95.1311Z" fill="#FFD200"/>
</svg>
